<svg xmlns="http://www.w3.org/2000/svg" width="1em" height="1em" viewBox="0 0 32 32">
  <!-- Add a white rounded border -->
  <rect x="0" y="0" width="32" height="32" fill="white" rx="5" ry="5" />
  <!-- Original path with your theme color -->
  <path fill="#003366" d="m16 24l-6.09-8.6A8.14 8.14 0 0 1 16 2a8.08 8.08 0 0 1 8 8.13a8.2 8.2 0 0 1-1.8 5.13Zm0-20a6.07 6.07 0 0 0-6 6.13a6.2 6.2 0 0 0 1.49 4L16 20.52L20.63 14A6.24 6.24 0 0 0 22 10.13A6.07 6.07 0 0 0 16 4"/>
  <!-- Circle with theme color -->
  <circle cx="16" cy="9" r="2" fill="#003366"/>
  <!-- Background shape -->
  <path fill="#003366" d="M28 12h-2v2h2v14H4V14h2v-2H4a2 2 0 0 0-2 2v14a2 2 0 0 0 2 2h24a2 2 0 0 0 2-2V14a2 2 0 0 0-2-2"/>
</svg>
